<svg width="45" height="44" viewBox="0 0 45 44" fill="none" xmlns="http://www.w3.org/2000/svg">
<path fill-rule="evenodd" clip-rule="evenodd" d="M32.4053 3.53959C29.9424 3.20845 26.7878 3.20847 22.7715 3.2085H22.5618C18.5456 3.20847 15.391 3.20845 12.928 3.53959C10.4042 3.87891 8.4017 4.58847 6.82834 6.16184C5.25498 7.7352 4.54541 9.73767 4.20609 12.2615C3.87496 14.7245 3.87498 17.879 3.875 21.8953V22.105C3.87498 26.1213 3.87496 29.2759 4.20609 31.7388C4.54541 34.2627 5.25498 36.2651 6.82834 37.8385C8.4017 39.4119 10.4042 40.1214 12.928 40.4607C15.3909 40.7919 18.5454 40.7919 22.5616 40.7918H22.5616H22.5616H22.5617H22.5619H22.7715H22.7717H22.7717H22.7717H22.7718C26.7879 40.7919 29.9424 40.7919 32.4053 40.4607C34.9292 40.1214 36.9316 39.4119 38.505 37.8385C40.0784 36.2651 40.7879 34.2627 41.1272 31.7388C41.4584 29.2759 41.4584 26.1214 41.4583 22.1053V22.1052V22.1052V22.1051V22.105V21.8954V21.8952V21.8951V21.8951V21.8951C41.4584 17.8789 41.4584 14.7244 41.1272 12.2615C40.7879 9.73767 40.0784 7.7352 38.505 6.16184C36.9316 4.58847 34.9292 3.87891 32.4053 3.53959ZM30 13.2918C29.2406 13.2918 28.625 13.9074 28.625 14.6668C28.625 15.4262 29.2406 16.0418 30 16.0418C30.3389 16.0418 30.6701 16.3327 30.6701 16.7621V19.037C30.6701 19.9468 31.0226 20.8258 31.6601 21.479L32.1688 22.0002L31.6601 22.5213C31.0226 23.1745 30.6701 24.0535 30.6701 24.9633V27.2383C30.6701 27.6676 30.3389 27.9585 30 27.9585C29.2406 27.9585 28.625 28.5741 28.625 29.3335C28.625 30.0929 29.2406 30.7085 30 30.7085C31.9201 30.7085 33.4201 29.1232 33.4201 27.2383V24.9633C33.4201 24.7617 33.4986 24.5748 33.6281 24.4422L34.3511 23.7014C35.2718 22.7581 35.2718 21.2422 34.3511 20.299L33.6281 19.5582C33.4986 19.4255 33.4201 19.2387 33.4201 19.037V16.7621C33.4201 14.8771 31.9201 13.2918 30 13.2918ZM16.7083 14.6668C16.7083 13.9074 16.0927 13.2918 15.3333 13.2918C13.4133 13.2918 11.9132 14.8771 11.9132 16.7621V19.037C11.9132 19.2387 11.8347 19.4255 11.7053 19.5582L10.9822 20.299C10.0615 21.2422 10.0615 22.7581 10.9822 23.7014L11.7053 24.4422C11.8347 24.5748 11.9132 24.7617 11.9132 24.9633V27.2383C11.9132 29.1232 13.4133 30.7085 15.3333 30.7085C16.0927 30.7085 16.7083 30.0929 16.7083 29.3335C16.7083 28.5741 16.0927 27.9585 15.3333 27.9585C14.9944 27.9585 14.6632 27.6676 14.6632 27.2383V24.9633C14.6632 24.0535 14.3108 23.1745 13.6732 22.5213L13.1645 22.0002L13.6732 21.479C14.3108 20.8258 14.6632 19.9468 14.6632 19.037V16.7621C14.6632 16.3327 14.9944 16.0418 15.3333 16.0418C16.0927 16.0418 16.7083 15.4262 16.7083 14.6668ZM19 20.1668C17.9875 20.1668 17.1667 20.9876 17.1667 22.0002C17.1667 23.0127 17.9875 23.8335 19 23.8335H19.0164C20.029 23.8335 20.8498 23.0127 20.8498 22.0002C20.8498 20.9876 20.029 20.1668 19.0164 20.1668H19ZM26.3169 20.1668C25.3044 20.1668 24.4836 20.9876 24.4836 22.0002C24.4836 23.0127 25.3044 23.8335 26.3169 23.8335H26.3333C27.3459 23.8335 28.1667 23.0127 28.1667 22.0002C28.1667 20.9876 27.3459 20.1668 26.3333 20.1668H26.3169Z" fill="#4834D4"/>
</svg>
