<svg width="45" height="44" viewBox="0 0 45 44" fill="none" xmlns="http://www.w3.org/2000/svg">
<path fill-rule="evenodd" clip-rule="evenodd" d="M15.9166 8.24984L15.9166 3.6665L19.5833 3.6665V8.24984H15.9166ZM25.0833 8.24984V3.6665L28.7499 3.6665V8.24984L25.0833 8.24984ZM3.99994 15.5832L8.58327 15.5832V19.2498H3.99994L3.99994 15.5832ZM36.0833 15.5832L40.6666 15.5832L40.6666 19.2498H36.0833L36.0833 15.5832ZM3.99994 24.7498H8.58327L8.58327 28.4165H3.99994L3.99994 24.7498ZM15.9166 40.3332L15.9166 35.7498L19.5833 35.7498V40.3332L15.9166 40.3332Z" fill="#0080FF"/>
<path fill-rule="evenodd" clip-rule="evenodd" d="M30.2427 24.4816C28.9948 24.7729 27.8645 25.3753 26.9443 26.2055L25.2268 24.9763L23.2499 27.8233L24.9884 29.0675C24.6888 29.8634 24.5243 30.7254 24.5243 31.6248C24.5243 32.5244 24.6888 33.3864 24.9885 34.1824L23.2501 35.4262L25.2267 38.2735L26.9445 37.0443C27.8646 37.8745 28.9949 38.4768 30.2427 38.768V40.3332H33.6738V38.768C34.9217 38.4768 36.0519 37.8745 36.9721 37.0443L38.6899 38.2735L40.6665 35.4262L38.9281 34.1824C39.2277 33.3864 39.3922 32.5244 39.3922 31.6248C39.3922 30.7254 39.2278 29.8634 38.9282 29.0675L40.6666 27.8233L38.6897 24.9763L36.9723 26.2055C36.052 25.3753 34.9218 24.7729 33.6738 24.4816V22.9165L30.2427 22.9165V24.4816ZM31.9583 27.7683C30.5432 27.7683 29.3188 28.4721 28.6099 29.511C28.1937 30.1211 27.9554 30.8456 27.9554 31.6248C27.9554 32.4042 28.1937 33.1288 28.6101 33.7389C29.3189 34.7776 30.5433 35.4814 31.9583 35.4814C33.3733 35.4814 34.5976 34.7776 35.3065 33.7389C35.7228 33.1288 35.9612 32.4042 35.9612 31.6248C35.9612 30.8456 35.7229 30.1211 35.3066 29.511C34.5978 28.4721 33.3734 27.7683 31.9583 27.7683Z" fill="#0080FF"/>
<path fill-rule="evenodd" clip-rule="evenodd" d="M7.20825 8.25C7.20825 7.49061 7.82386 6.875 8.58325 6.875L36.0833 6.875C36.8426 6.875 37.4583 7.49061 37.4583 8.25V23.0386L36.9833 23.3785C36.6555 23.1823 36.3152 23.0047 35.9639 22.8473V20.625H27.9495V22.8473C27.5982 23.0047 27.2579 23.1823 26.93 23.3785L24.6687 21.7601L20.0774 28.3722L22.3676 30.0112C22.2778 30.5366 22.231 31.0759 22.231 31.625C22.231 32.1742 22.2778 32.7135 22.3676 33.2388L20.0776 34.8773L21.638 37.125H8.58325C7.82386 37.125 7.20825 36.5094 7.20825 35.75L7.20825 8.25ZM22.3333 12.8333L14.9999 12.8333L14.9999 16.5L22.3333 16.5V12.8333Z" fill="#0080FF"/>
</svg>
