<svg width="44" height="44" viewBox="0 0 44 44" fill="none" xmlns="http://www.w3.org/2000/svg">
<path fill-rule="evenodd" clip-rule="evenodd" d="M28.6333 29.3513C28.4554 29.3403 28.2466 29.3403 28.0451 29.3403H15.9518C15.7503 29.3403 15.5415 29.3403 15.3635 29.3513C15.1736 29.363 14.9022 29.3918 14.6166 29.5078C13.7471 29.8607 13.2023 30.6928 13.1613 31.5896C13.1478 31.883 13.2022 32.1401 13.2498 32.3255C13.2948 32.5004 13.3593 32.7032 13.4237 32.9056C13.6477 33.6113 13.8803 34.3438 14.173 34.8269C14.6176 35.5604 15.2521 36.1521 16.0043 36.534L16.1667 37.3482C16.3335 38.1907 16.4844 38.9525 16.8464 39.592C17.4012 40.5724 18.3112 41.3292 19.4158 41.6941C20.1403 41.9334 21.1471 41.9318 21.9958 41.9303C22.8446 41.9318 23.8514 41.9334 24.5759 41.6941C25.6805 41.3292 26.5905 40.5724 27.1453 39.592C27.5073 38.9525 27.6582 38.1907 27.825 37.3483L27.825 37.3482L27.9868 36.5369C28.7415 36.1551 29.3781 35.5623 29.8238 34.8269C30.1166 34.3438 30.3492 33.6113 30.5732 32.9056C30.6376 32.7032 30.7021 32.5004 30.7471 32.3255C30.7947 32.1401 30.8491 31.883 30.8356 31.5896C30.7946 30.6928 30.2498 29.8607 29.3803 29.5078C29.0947 29.3918 28.8233 29.363 28.6333 29.3513ZM24.4202 37.0114H19.5715C19.7254 37.7555 19.7789 37.92 19.8413 38.0303C20.0022 38.3145 20.2517 38.5102 20.525 38.6005C20.6349 38.6368 20.8113 38.6586 21.9958 38.6586C23.1804 38.6586 23.3568 38.6368 23.4667 38.6005C23.74 38.5102 23.9895 38.3145 24.1504 38.0303C24.2128 37.92 24.2663 37.7555 24.4202 37.0114Z" fill="#F39C12"/>
<path fill-rule="evenodd" clip-rule="evenodd" d="M22 12.1457C16.4846 12.1457 11.9167 16.7748 11.9167 22.6065C11.9167 24.1741 12.248 25.6555 12.8389 26.9838C13.2505 27.9089 12.8342 28.9925 11.9091 29.4041C10.9839 29.8156 9.90036 29.3993 9.48881 28.4742C8.69224 26.6836 8.25 24.6951 8.25 22.6065C8.25 14.8584 14.3526 8.479 22 8.479C29.6474 8.479 35.75 14.8584 35.75 22.6065C35.75 24.6951 35.3078 26.6836 34.5112 28.4742C34.0996 29.3993 33.0161 29.8156 32.091 29.4041C31.1658 28.9925 30.7495 27.9089 31.1611 26.9838C31.752 25.6555 32.0833 24.1741 32.0833 22.6065C32.0833 16.7748 27.5154 12.1457 22 12.1457Z" fill="#F39C12"/>
<path fill-rule="evenodd" clip-rule="evenodd" d="M22 2.0625C23.0126 2.0625 23.8334 2.88331 23.8334 3.89583V5.72917C23.8334 6.74169 23.0126 7.5625 22 7.5625C20.9875 7.5625 20.1667 6.74169 20.1667 5.72917V3.89583C20.1667 2.88331 20.9875 2.0625 22 2.0625ZM36.2586 7.96922C36.9746 8.68518 36.9746 9.84599 36.2586 10.5619L34.9623 11.8583C34.2463 12.5743 33.0855 12.5743 32.3696 11.8583C31.6536 11.1423 31.6536 9.98154 32.3696 9.26558L33.6659 7.96922C34.3819 7.25326 35.5427 7.25326 36.2586 7.96922ZM7.7413 7.96998C8.45726 7.25402 9.61806 7.25402 10.334 7.96998L11.6304 9.26634C12.3463 9.9823 12.3463 11.1431 11.6304 11.8591C10.9144 12.575 9.75362 12.575 9.03766 11.8591L7.7413 10.5627C7.02534 9.84674 7.02534 8.68594 7.7413 7.96998ZM1.83337 22.2292C1.83337 21.2166 2.65419 20.3958 3.66671 20.3958H5.50004C6.51256 20.3958 7.33337 21.2166 7.33337 22.2292C7.33337 23.2417 6.51256 24.0625 5.50004 24.0625H3.66671C2.65419 24.0625 1.83337 23.2417 1.83337 22.2292ZM36.6667 22.2292C36.6667 21.2166 37.4875 20.3958 38.5 20.3958H40.3334C41.3459 20.3958 42.1667 21.2166 42.1667 22.2292C42.1667 23.2417 41.3459 24.0625 40.3334 24.0625H38.5C37.4875 24.0625 36.6667 23.2417 36.6667 22.2292Z" fill="#F39C12"/>
</svg>
