<svg width="274" height="60" viewBox="0 0 274 60" fill="none" xmlns="http://www.w3.org/2000/svg">
<path d="M95.7431 46.9811C95.1716 46.0327 93.6042 45.1322 91.7992 45.1322C89.4707 45.1322 88.3532 46.1032 88.3532 47.3368C88.3532 48.7821 90.0649 49.1858 92.0623 49.4229C95.5309 49.8492 98.7647 50.7497 98.7647 54.7101C98.7647 58.4109 95.4856 60.0002 91.7765 60.0002C88.3787 60.0002 85.7616 58.9557 84.5281 55.9212L87.1423 54.569C87.8779 56.3954 89.8046 57.2027 91.8246 57.2027C93.8447 57.2027 95.6525 56.514 95.6525 54.713C95.6525 53.1491 94.0116 52.5083 91.802 52.2712C88.4041 51.8675 85.2665 50.967 85.2665 47.2437C85.2665 43.828 88.6418 42.4307 91.7086 42.4053C94.3002 42.4053 96.9851 43.1392 98.2441 45.7024L95.7487 46.984L95.7431 46.9811Z" fill="#0080FF"/>
<path d="M124.188 51.3679C124.14 55.6614 121.503 59.9522 115.655 59.9522C109.807 59.9522 107.099 55.7546 107.099 51.3905C107.099 47.0263 109.903 42.6396 115.655 42.6396C121.407 42.6396 124.236 47.0263 124.188 51.3679ZM110.189 51.4384C110.26 54.1653 111.734 57.0813 115.655 57.0813C119.576 57.0813 121.05 54.1399 121.098 51.413C121.146 48.6156 119.576 45.485 115.655 45.485C111.734 45.485 110.118 48.6382 110.189 51.4384Z" fill="#0080FF"/>
<path d="M136.283 42.9727V56.6777H144.841V59.5711H133.145V42.9727H136.283Z" fill="#0080FF"/>
<path d="M167.322 42.9953V52.5055C167.322 57.4144 164.303 59.9268 160.122 59.9268C155.94 59.9268 152.729 57.5076 152.729 52.5055V42.9953H155.841V52.5055C155.841 55.4921 157.553 57.0814 160.144 57.0814C162.736 57.0814 164.21 55.3509 164.21 52.5055V42.9953H167.322Z" fill="#0080FF"/>
<path d="M181.341 45.8181H176.064V42.9727H189.755V45.8181H184.478V59.5711H181.341V45.8181Z" fill="#0080FF"/>
<path d="M201.445 42.9727H198.333V59.5739H201.445V42.9727Z" fill="#0080FF"/>
<path d="M227.898 51.3679C227.85 55.6614 225.213 59.9522 219.365 59.9522C213.517 59.9522 210.81 55.7546 210.81 51.3905C210.81 47.0263 213.613 42.6396 219.365 42.6396C225.117 42.6396 227.946 47.0263 227.898 51.3679ZM213.899 51.4384C213.97 54.1653 215.444 57.0813 219.365 57.0813C223.286 57.0813 224.76 54.1399 224.809 51.413C224.857 48.6156 223.289 45.485 219.365 45.485C215.441 45.485 213.826 48.6382 213.899 51.4384Z" fill="#0080FF"/>
<path d="M247.787 42.9473H250.925V59.5711H248.976V59.5965L240.231 48.3785V59.5711H237.093V42.9727H239.636L247.787 53.2648V42.9473Z" fill="#0080FF"/>
<path d="M270.981 46.9811C270.413 46.0327 268.842 45.1322 267.037 45.1322C264.709 45.1322 263.591 46.1032 263.591 47.3368C263.591 48.7821 265.303 49.1858 267.298 49.4229C270.766 49.8492 274 50.7497 274 54.7101C274 58.4109 270.721 60.0002 267.012 60.0002C263.614 60.0002 261 58.9557 259.763 55.9212L262.378 54.569C263.113 56.3954 265.04 57.2027 267.06 57.2027C269.08 57.2027 270.888 56.514 270.888 54.713C270.888 53.1491 269.247 52.5083 267.037 52.2712C263.639 51.8675 260.502 50.967 260.502 47.2437C260.502 43.828 263.877 42.4307 266.944 42.4053C269.535 42.4053 272.22 43.1392 273.479 45.7024L270.984 46.984L270.981 46.9811Z" fill="#0080FF"/>
<path d="M82.2817 43.1759H0.197998V45.8209H82.2817V43.1759Z" fill="#0080FF"/>
<path d="M31.076 33.4451C31.076 33.8488 30.9996 34.2242 30.8468 34.5714C30.694 34.9186 30.4932 35.2178 30.2385 35.4691C29.9867 35.7203 29.684 35.9207 29.3389 36.0647C28.9909 36.2087 28.6231 36.2821 28.2326 36.2821C27.8846 36.2821 27.5338 36.2171 27.1802 36.0873C26.8265 35.9574 26.5125 35.7485 26.238 35.4606L5.63861 13.9955V35.8473H0V7.22066C0 6.6448 0.164094 6.11975 0.486623 5.65115C0.811982 5.18256 1.22788 4.83252 1.7343 4.60105C2.26902 4.38368 2.81789 4.33005 3.38373 4.43732C3.94674 4.54459 4.43054 4.80994 4.83511 5.22772L25.4374 26.673V4.82123H31.076V33.4451Z" fill="#EEEFF1"/>
<path d="M107.931 4.82123L93.2082 34.7436C92.9762 35.2037 92.6338 35.5763 92.1783 35.8586C91.7228 36.1409 91.2192 36.2821 90.6704 36.2821C90.1215 36.2821 89.6405 36.1409 89.185 35.8586C88.7295 35.5763 88.3787 35.2065 88.1326 34.7436L73.4292 4.82123H79.7411L90.6704 27.1727L101.642 4.82123H107.931Z" fill="#EEEFF1"/>
<path d="M134.3 35.8473V28.2312H114.478V35.8473H108.84V20.3329C108.84 18.0689 109.23 15.9828 110.011 14.0802C110.792 12.1748 111.875 10.5404 113.264 9.16844C114.651 7.79935 116.292 6.73231 118.187 5.96731C120.08 5.20232 122.148 4.82123 124.389 4.82123H137.098C137.488 4.82123 137.856 4.89462 138.204 5.03859C138.552 5.18256 138.855 5.3858 139.115 5.64551C139.375 5.90521 139.576 6.20726 139.723 6.55447C139.867 6.90168 139.941 7.26865 139.941 7.65821V35.8473H134.3ZM114.481 22.6053H134.302V10.4444H124.392C124.219 10.4444 123.854 10.4698 123.297 10.5206C122.739 10.5714 122.097 10.6984 121.367 10.8989C120.637 11.1021 119.868 11.4098 119.059 11.8304C118.249 12.2482 117.505 12.8269 116.826 13.5608C116.147 14.2976 115.587 15.215 115.146 16.3188C114.704 17.4225 114.484 18.7605 114.484 20.3329V22.6053H114.481Z" fill="#EEEFF1"/>
<path d="M173.702 10.4472H161.279V35.8473H155.64V10.4472H143.192V4.82123H173.702V10.4472Z" fill="#EEEFF1"/>
<path d="M205.061 35.8473H184.719C183.938 35.8473 183.084 35.709 182.161 35.4352C181.236 35.1614 180.379 34.7097 179.592 34.083C178.803 33.4564 178.147 32.6406 177.617 31.6384C177.088 30.6363 176.825 29.4056 176.825 27.949V7.65539C176.825 7.26583 176.896 6.89886 177.043 6.55165C177.187 6.20443 177.385 5.90239 177.64 5.64268C177.892 5.38298 178.192 5.18256 178.54 5.03577C178.888 4.8918 179.261 4.81841 179.669 4.81841H205.061V10.4444H182.464V27.949C182.464 28.6857 182.659 29.2475 183.05 29.637C183.44 30.0266 184.011 30.2214 184.761 30.2214H205.058V35.8473H205.061ZM202.523 23.1699H184.719V17.5015H202.523V23.1699Z" fill="#EEEFF1"/>
<path d="M237.266 35.8473H216.924C216.403 35.8473 215.843 35.7852 215.243 35.6638C214.643 35.5425 214.049 35.3505 213.466 35.0908C212.881 34.8311 212.321 34.4952 211.786 34.0859C211.251 33.6737 210.779 33.1769 210.366 32.5926C209.952 32.0082 209.624 31.3308 209.378 30.5573C209.132 29.7866 209.01 28.9172 209.01 27.9518V12.7168C209.01 12.1974 209.073 11.6384 209.194 11.04C209.316 10.4416 209.508 9.84875 209.769 9.26724C210.029 8.68291 210.368 8.12398 210.787 7.59046C211.206 7.05694 211.709 6.58552 212.295 6.17338C212.881 5.76124 213.557 5.43379 214.324 5.1882C215.09 4.94261 215.956 4.82123 216.926 4.82123H237.268V10.4472H216.926C216.188 10.4472 215.625 10.642 215.235 11.0315C214.844 11.4211 214.649 11.997 214.649 12.7619V27.9518C214.649 28.6744 214.847 29.2334 215.246 29.6286C215.642 30.0266 216.202 30.2242 216.926 30.2242H237.268V35.8502L237.266 35.8473Z" fill="#EEEFF1"/>
<path d="M247.391 17.4987H267.19V4.82123H272.829V35.8473H267.19V23.167H247.391V35.8473H241.756V4.82123H247.391V17.4987Z" fill="#EEEFF1"/>
<path d="M43.9018 10.9084C44.1639 10.8145 44.418 10.7235 44.6335 10.5236C44.6982 10.4647 44.7685 10.4392 44.8417 10.439H44.8441C44.954 10.4394 45.0639 10.4928 45.1541 10.5632C45.4147 10.7622 50.5989 13.8968 54.464 16.2337C56.6823 17.5749 58.466 18.6534 58.6352 18.7636C58.7135 18.8144 58.7952 18.8596 58.877 18.9047C59.0404 18.9951 59.2039 19.0854 59.3397 19.2209C59.4529 19.331 59.5123 19.4467 59.4783 19.6048C59.3652 20.1468 59.5179 20.6323 59.8235 21.0755C59.879 21.1555 59.9513 21.2221 60.024 21.289C60.0846 21.3448 60.1455 21.4009 60.197 21.4651C60.2903 21.5808 60.3073 21.6853 60.2139 21.8038C60.2093 21.8091 60.2038 21.8146 60.1982 21.8202C60.18 21.8385 60.1602 21.8585 60.1602 21.88C60.1319 22.2047 56.9122 29.2336 56.6661 29.5554C56.6067 29.6344 56.5416 29.6768 56.4483 29.6796C56.3644 29.6815 56.2805 29.6808 56.2001 29.6802C56.1612 29.6799 56.123 29.6796 56.0861 29.6796C55.3986 29.6457 54.9346 30.0127 54.5301 30.4869C54.5131 30.5067 54.4989 30.5293 54.4933 30.5519C54.4339 30.8709 54.2273 30.933 53.9274 30.933C53.4608 30.9267 45.1776 29.7497 40.4554 29.0787C38.7643 28.8384 37.5299 28.663 37.2747 28.6295C36.5193 27.1729 35.9422 25.6119 35.5716 23.9718C35.6216 23.8833 35.6677 23.7919 35.7139 23.7005C35.7722 23.5851 35.8306 23.4695 35.8969 23.3592C35.956 23.2592 36.6029 22.0508 37.4669 20.437C39.3345 16.9483 42.2164 11.565 42.3673 11.3874C42.3956 11.3564 42.4154 11.314 42.4324 11.2745C42.5342 11.06 42.6983 10.9744 42.9247 11.0176C43.2274 11.0769 43.5131 11.0487 43.8102 10.9414C43.8408 10.9303 43.8713 10.9193 43.9018 10.9084Z" fill="url(#paint0_linear_2001_1802)"/>
<path d="M60.7713 17.6994C60.7515 17.9365 60.6836 18.0522 60.4488 18.1115C60.3469 18.1369 60.262 18.1793 60.1941 18.2611C59.9961 18.4982 59.6962 18.5208 59.4529 18.3204C59.1841 18.0974 45.7454 9.94213 45.4285 9.74735C45.3097 9.67396 45.2503 9.5808 45.2559 9.43966C45.2616 9.27876 45.2418 9.11221 45.2644 8.95413C45.3069 8.61821 45.188 8.3331 45.0268 8.05363C44.9136 7.8645 44.9391 7.8024 45.1371 7.68666C45.2899 7.59915 45.3974 7.45519 45.5247 7.33663C45.8642 7.02329 46.1896 6.69584 46.5461 6.40508C46.9054 6.1115 47.2562 5.80946 47.5872 5.482C48.088 4.988 48.6368 4.54199 49.1461 4.05081C49.5988 3.61327 50.0854 3.2096 50.555 2.78617C50.9766 2.40508 51.3925 2.01835 51.8169 1.63726C52.3855 1.12068 52.9599 0.609739 53.5342 0.0959774C53.5483 0.084686 53.5653 0.0733945 53.5766 0.0592802C53.5823 0.0508116 53.5879 0.042343 53.5964 0.0338744C53.984 0.0112915 54.3716 0 54.7649 0C56.0211 0 57.2518 0.11856 58.4429 0.34439C58.6041 1.27029 60.8194 17.2082 60.7713 17.6994Z" fill="url(#paint1_linear_2001_1802)"/>
<path d="M73.0359 12.3275C72.3767 12.7085 64.0673 17.976 63.7617 18.1143C63.6769 18.1538 63.6203 18.2188 63.558 18.2781C63.3006 18.5208 63.0262 18.5095 62.7998 18.247C62.7291 18.1651 62.6442 18.1087 62.5367 18.0748C62.2651 17.9901 62.0388 17.7869 61.7332 17.784C61.654 17.784 61.5889 17.7163 61.6002 17.6316C61.6483 17.2195 59.351 1.64855 59.3737 1.05293C59.3821 0.866619 59.2718 0.70007 59.2492 0.510938C65.5385 1.97318 70.6707 6.44742 73.0359 12.3275Z" fill="url(#paint2_linear_2001_1802)"/>
<path d="M74.442 19.6302C74.442 17.3352 74.0487 15.1334 73.3216 13.0868C72.8491 13.4494 68.2938 16.285 65.9815 17.7243C65.2339 18.1897 64.7208 18.5091 64.6558 18.5519C64.6113 18.5804 64.5669 18.6096 64.5223 18.6388C64.329 18.7657 64.133 18.8943 63.9145 18.9838C63.6514 19.0939 63.5156 19.2886 63.5156 19.5709C63.5184 19.7459 63.5213 19.921 63.5156 20.096C63.51 20.3867 63.4675 20.6662 63.2468 20.8892C63.1337 21.0049 63.1563 21.1404 63.2638 21.259C63.3419 21.346 63.8399 21.8849 64.555 22.6589C66.7175 24.9992 70.8656 29.4885 71.395 30.1313C73.3245 27.0939 74.442 23.4919 74.442 19.6302Z" fill="url(#paint3_linear_2001_1802)"/>
<path d="M54.83 33.7078C54.6913 34.0663 54.5159 34.4107 54.3575 34.7579C54.2217 35.0572 54.0689 35.3536 53.9501 35.6556C53.8199 35.9831 53.6389 36.2851 53.5115 36.6154C53.3673 36.988 53.206 37.3606 53.0164 37.7191C52.8608 38.0212 52.7165 38.3289 52.5921 38.645C52.527 38.8088 52.4478 38.964 52.3601 39.1165C46.099 38.3571 40.7462 34.662 37.7218 29.451C37.7585 29.4651 37.7925 29.4764 37.8236 29.4848C38.1659 29.5723 53.6643 31.7826 53.8963 31.7826C54.0661 31.7798 54.1198 31.8504 54.1651 32.0169C54.2698 32.4178 54.3971 32.8158 54.7281 33.1094C54.9771 33.3324 54.9544 33.386 54.83 33.7078Z" fill="url(#paint4_linear_2001_1802)"/>
<path d="M70.9423 30.8031C70.2123 30.0776 63.0233 22.2922 62.6669 21.8941C62.5678 21.7812 62.4716 21.7304 62.35 21.7304C62.3104 21.7304 62.2679 21.7361 62.2227 21.7474C61.9171 21.8151 61.6116 21.88 61.2947 21.8716C61.1363 21.8659 61.0684 21.9647 61.0118 22.0974C60.8533 22.4757 57.744 29.3663 57.5601 29.7332C57.43 29.9901 57.4866 30.1059 57.6309 30.2414C57.9138 30.5039 58.1486 30.7975 58.1769 31.2096C58.1854 31.3536 58.242 31.4891 58.3919 31.5342C58.5802 31.5902 62.6604 32.1978 65.718 32.6532C67.4377 32.9093 68.834 33.1172 69.0326 33.1517H69.0354C69.7285 32.4206 70.3708 31.6359 70.9423 30.8031Z" fill="url(#paint5_linear_2001_1802)"/>
<path d="M68.3875 33.801C64.851 37.1828 60.0527 39.2632 54.7649 39.2632C54.2471 39.2632 53.7322 39.2435 53.2258 39.2039C53.2852 39.0233 53.3871 38.8567 53.4719 38.693C53.6558 38.3373 53.8086 37.9675 53.9699 37.6062C54.1481 37.2025 54.3292 36.796 54.5159 36.4008C54.663 36.0932 54.796 35.7742 54.9375 35.4665C55.0704 35.1701 55.2572 34.8906 55.3336 34.5632C55.3618 34.4333 55.458 34.3204 55.5203 34.1962C55.5599 34.12 55.6193 34.0409 55.625 33.9591C55.6448 33.7361 55.7891 33.6824 55.973 33.6711C56.0974 33.6655 56.2248 33.6598 56.3492 33.6711C57.0622 33.7248 57.5488 33.3719 57.9194 32.8073C57.9308 32.7904 57.9393 32.7763 57.9506 32.7593C58.208 32.3754 67.8839 33.801 68.3479 33.801C68.3592 33.801 68.3734 33.801 68.3875 33.801Z" fill="url(#paint6_linear_2001_1802)"/>
<path d="M35.3226 22.6648C35.3631 22.576 35.417 22.4951 35.471 22.414C35.5338 22.3196 35.5969 22.2249 35.6395 22.1171C35.764 21.8066 41.5157 11.1334 41.7506 10.7156C41.81 10.6111 41.7845 10.4954 41.7194 10.4135C41.662 10.3427 41.6167 10.2646 41.5714 10.1865C41.5319 10.1185 41.4924 10.0504 41.445 9.9873C41.2243 9.69654 41.2073 9.34651 41.2073 9.00776C41.2045 8.69725 41.1592 8.57304 40.8848 8.42625C40.79 8.3753 40.6884 8.35513 40.5878 8.33515C40.4933 8.31639 40.3996 8.2978 40.3133 8.25406C40.104 8.14813 39.885 8.06492 39.6662 7.98181C39.4768 7.90988 39.2877 7.83802 39.1052 7.75159H39.0996C36.5819 11.0483 35.0881 15.1664 35.0878 19.6316V19.6302V19.633V19.6316C35.0878 20.6643 35.1671 21.6772 35.3226 22.6648Z" fill="url(#paint7_linear_2001_1802)"/>
<path d="M39.7079 7.11265C39.6809 7.10539 39.6527 7.09782 39.6286 7.08821C42.7323 3.36203 47.1939 0.801693 52.2526 0.15808C51.8043 0.484776 47.7613 4.17668 45.855 5.91748C45.307 6.41789 44.9356 6.75707 44.8768 6.80875C44.8617 6.82214 44.8461 6.83529 44.8305 6.84848C44.7933 6.87977 44.7559 6.91133 44.724 6.94707C44.492 7.19831 44.3619 7.23218 44.0309 7.1108C43.7564 7.012 43.482 6.93578 43.1849 6.95554C42.8568 6.98095 42.5371 7.05999 42.2372 7.17855C42.0639 7.24629 41.9159 7.39134 41.7721 7.53214C41.7422 7.5615 41.7124 7.59067 41.6826 7.61891C41.5355 7.75441 41.4139 7.79111 41.2187 7.69231C40.7377 7.45519 40.2369 7.26323 39.722 7.11644C39.7174 7.11518 39.7127 7.11392 39.7079 7.11265Z" fill="url(#paint8_linear_2001_1802)"/>
<path d="M44.4298 9.01059C44.4326 9.58363 43.8753 10.1736 43.3349 10.1877C42.6898 10.2047 42.0618 9.70501 42.0674 8.97954C42.0731 8.23995 42.6531 7.84475 43.1991 7.78829C43.7423 7.73465 44.5458 8.36415 44.4326 9.00777" fill="url(#paint9_linear_2001_1802)"/>
<path d="M55.0025 31.7375C55.0025 31.0939 55.5938 30.5124 56.253 30.5124C56.8104 30.5124 57.4357 31.1249 57.396 31.7036C57.3564 32.3331 57.0254 32.8638 56.1823 32.8694C55.5514 32.8751 54.9544 32.2456 55.0025 31.7346" fill="url(#paint10_linear_2001_1802)"/>
<path d="M62.6442 19.7685C62.7347 20.5053 62.1434 21.0049 61.5012 20.9965C60.7967 20.988 60.3497 20.5618 60.3271 19.8758C60.3045 19.1927 60.8703 18.6479 61.5352 18.6281C61.8888 18.6168 62.1067 18.8257 62.3302 19.0261C62.5593 19.2322 62.7376 19.475 62.6442 19.7685Z" fill="url(#paint11_linear_2001_1802)"/>
<defs>
<linearGradient id="paint0_linear_2001_1802" x1="38.7789" y1="31.5566" x2="69.6287" y2="5.93922" gradientUnits="userSpaceOnUse">
<stop stop-color="#0080FF"/>
<stop offset="1" stop-color="#54AAFF"/>
</linearGradient>
<linearGradient id="paint1_linear_2001_1802" x1="38.7789" y1="31.5566" x2="69.6287" y2="5.93922" gradientUnits="userSpaceOnUse">
<stop stop-color="#0080FF"/>
<stop offset="1" stop-color="#54AAFF"/>
</linearGradient>
<linearGradient id="paint2_linear_2001_1802" x1="38.7789" y1="31.5566" x2="69.6287" y2="5.93922" gradientUnits="userSpaceOnUse">
<stop stop-color="#0080FF"/>
<stop offset="1" stop-color="#54AAFF"/>
</linearGradient>
<linearGradient id="paint3_linear_2001_1802" x1="38.7789" y1="31.5566" x2="69.6287" y2="5.93922" gradientUnits="userSpaceOnUse">
<stop stop-color="#0080FF"/>
<stop offset="1" stop-color="#54AAFF"/>
</linearGradient>
<linearGradient id="paint4_linear_2001_1802" x1="38.7789" y1="31.5566" x2="69.6287" y2="5.93922" gradientUnits="userSpaceOnUse">
<stop stop-color="#0080FF"/>
<stop offset="1" stop-color="#54AAFF"/>
</linearGradient>
<linearGradient id="paint5_linear_2001_1802" x1="38.7789" y1="31.5566" x2="69.6287" y2="5.93922" gradientUnits="userSpaceOnUse">
<stop stop-color="#0080FF"/>
<stop offset="1" stop-color="#54AAFF"/>
</linearGradient>
<linearGradient id="paint6_linear_2001_1802" x1="38.7789" y1="31.5566" x2="69.6287" y2="5.93922" gradientUnits="userSpaceOnUse">
<stop stop-color="#0080FF"/>
<stop offset="1" stop-color="#54AAFF"/>
</linearGradient>
<linearGradient id="paint7_linear_2001_1802" x1="38.7789" y1="31.5566" x2="69.6287" y2="5.93922" gradientUnits="userSpaceOnUse">
<stop stop-color="#0080FF"/>
<stop offset="1" stop-color="#54AAFF"/>
</linearGradient>
<linearGradient id="paint8_linear_2001_1802" x1="38.7789" y1="31.5566" x2="69.6287" y2="5.93922" gradientUnits="userSpaceOnUse">
<stop stop-color="#0080FF"/>
<stop offset="1" stop-color="#54AAFF"/>
</linearGradient>
<linearGradient id="paint9_linear_2001_1802" x1="38.7789" y1="31.5566" x2="69.6287" y2="5.93922" gradientUnits="userSpaceOnUse">
<stop stop-color="#0080FF"/>
<stop offset="1" stop-color="#54AAFF"/>
</linearGradient>
<linearGradient id="paint10_linear_2001_1802" x1="38.7789" y1="31.5566" x2="69.6287" y2="5.93922" gradientUnits="userSpaceOnUse">
<stop stop-color="#0080FF"/>
<stop offset="1" stop-color="#54AAFF"/>
</linearGradient>
<linearGradient id="paint11_linear_2001_1802" x1="38.7789" y1="31.5566" x2="69.6287" y2="5.93922" gradientUnits="userSpaceOnUse">
<stop stop-color="#0080FF"/>
<stop offset="1" stop-color="#54AAFF"/>
</linearGradient>
</defs>
</svg>
